<?xml version="1.0" encoding="utf-8"?>
<!-- Generator: Adobe Illustrator 26.3.1, SVG Export Plug-In . SVG Version: 6.00 Build 0)  -->
<svg version="1.1" id="Layer_1" xmlns="http://www.w3.org/2000/svg" xmlns:xlink="http://www.w3.org/1999/xlink" x="0px" y="0px"
	 viewBox="0 0 584 192.7" style="enable-background:new 0 0 584 192.7;" xml:space="preserve">
<style type="text/css">
	.st0{fill:#457B9D;}
	.st1{fill:#A4DBF0;}
</style>
<path class="st0" d="M410.1,186.8c-21-5.2-40.9-13.1-60.7-21.6c-15.6-6.6-31.1-13.4-46.8-19.8c-17.8-7.2-36-13-54.8-16.9
	c-9.1-1.9-18.3-3.4-27.5-4.3c-8-0.8-16.1-1.1-24.1-0.8c-10.9,0.4-21.5,2.1-31.8,5.7c-5.2,1.8-10.1,4.2-14.8,7.1
	c-0.3,0.2-0.6,0.3-0.9,0.5c-0.1-0.1-0.3-0.2-0.3-0.3c-0.4-0.5-0.9-1.1-1.4-1.8c1.9-1.3,3.8-2.6,5.8-3.9c8-5,16.7-8.4,25.9-10.8
	c7.1-1.8,14.4-3,21.7-3.7c7.2-0.7,14.5-1.1,21.8-0.8c7.4,0.3,14.7,0.6,22.1,1.4c19.2,1.9,38.2,5.2,56.7,10.5
	c14.1,4,28.1,8.6,42.1,13c9.6,3,19.1,6.2,28.9,8.5c7.6,1.8,15.4,3.2,23.2,4c8.2,0.9,16.3,1.3,24.5,1.1c19.2-0.4,37.9-3.7,55.9-10.5
	c11.5-4.3,22.3-9.8,32.2-17c11-8.1,20-17.9,26-30.3c3.6-7.5,5.8-15.5,6.9-23.7c0.7-5.4,1-10.9,0.8-16.3c-0.2-7-0.8-14-2-20.9
	c-1.9-11.1-4-22.2-6.1-33.4c-0.1-0.6,0-0.9,0.5-1.3c1.5-1,1.5-1,3,0c15.4,10.2,27.3,23.6,35.8,40c4.4,8.6,7.6,17.6,9.5,27
	c1.1,5.3,1.7,10.6,1.9,16.1c0.7,23.4-6.6,44.1-21,62.4c-9.4,11.9-21,21.2-34.3,28.5c-13.2,7.3-27.2,12.2-41.9,15.1
	c-8,1.6-16,2.4-24.1,2.8c-8.5,0.3-17,0-25.4-1C428,190.6,419,189,410.1,186.8z"/>
<path class="st0" d="M159,77.7c14.1-6.2,28.7-10.8,43.8-13.7c7.5-1.4,15-2.4,22.5-2.9c7.7-0.5,15.3-0.5,23,0.1
	c10.6,0.7,21.1,2.5,31.4,5.3c9.7,2.7,19,6.2,28.2,10c12,5,23.9,10.2,35.9,15.2c11,4.6,22.1,8.9,33.6,12.2c9.1,2.7,18.3,4.8,27.8,5.8
	c8.6,1,17.2,1.1,25.9,0.3c16.8-1.5,32.8-6.1,48.4-12.6c12-5,23.5-11.2,34.7-17.9c0.3-0.2,0.6-0.3,1-0.5c0.6,0.7,1.1,1.3,1.7,2
	c-0.8,0.8-1.5,1.7-2.2,2.5c-11.2,11.9-23.6,22.4-37.7,30.8c-14.1,8.5-29.2,14.7-45.4,18c-9.6,2-19.3,2.8-29.1,2.6
	c-8.4-0.2-16.8-1-25-2.5c-15.2-2.6-29.9-6.8-44.3-11.9c-10.7-3.8-21.4-7.8-32.1-11.7c-10-3.7-20-7.1-30.3-9.8
	c-8.7-2.3-17.6-4.1-26.6-5.1c-7.5-0.8-15-1.1-22.5-0.8c-7.7,0.3-15.3,1.3-22.9,2.8c-23.9,4.7-46.9,12.3-69.5,21.2
	c-16,6.3-31.8,13.2-47.6,20.1c-0.8,0.3-1.2,0.3-1.6-0.4c-0.3-0.5-0.6-0.8-1-1.4C101.6,110.8,128.1,91.4,159,77.7z"/>
<path class="st1" d="M191.6,174.6c-9.7,2.2-19.3,4.5-28.9,6.5c-5.8,1.3-11.7,2.3-17.6,3.3c-3.2,0.6-6.3,0.9-9.5,1.3
	c-2.8,0.3-5.6,0.6-8.4,0.9c-2.5,0.2-5,0.5-7.4,0.5c-6.7,0.2-13.5,0.3-20.2,0.3c-2.2,0-4.5,0-6.7-0.2c-2.7-0.2-5.4-0.4-8.1-0.7
	c-2.1-0.2-4.1-0.3-6.2-0.6c-2.6-0.3-5.1-0.7-7.7-1c-2.5-0.3-4.9-0.7-7.4-1.1c-3.1-0.5-6.3-1.1-9.4-1.8c-3.9-0.8-7.8-1.7-11.6-2.8
	c-4.8-1.3-9.6-2.6-14.4-4c-8-2.4-15.9-5.3-23.6-8.5c-1.5-0.6-3-1.3-4.4-2c1,0.2,2.1,0.4,3.1,0.6c2.9,0.5,5.8,1,8.7,1.5
	c2.4,0.4,4.7,0.7,7.1,1c1.8,0.2,3.7,0.4,5.5,0.5c2.2,0.2,4.3,0.4,6.5,0.5c1.4,0.1,2.7,0.2,4.1,0.2c5.7,0,11.3,0.1,17,0
	c3.3-0.1,6.7-0.4,10-0.6c3.5-0.3,6.9-0.5,10.4-0.9c5.9-0.7,11.8-1.5,17.6-2.5c7.7-1.3,15.4-2.7,23-4.3c8.4-1.7,16.7-3.7,25.1-5.5
	c7.7-1.7,15.3-3.5,23-5.1c5-1.1,10-2,15-2.9c3.2-0.6,6.4-0.9,9.6-1.3c3-0.4,5.9-0.7,8.9-1c2-0.2,4.1-0.3,6.1-0.4
	c5-0.2,9.9-0.4,14.9-0.6c2.8-0.1,5.5,0,8.3,0.1c2.4,0.1,4.8,0.2,7.2,0.3c2.4,0.1,4.9,0.3,7.3,0.5c3.2,0.3,6.5,0.6,9.7,1.1
	c3.7,0.5,7.5,1.1,11.2,1.7c4.7,0.9,9.4,1.8,14.1,2.8c4.4,1,8.7,2.1,13.1,3.3c4.3,1.2,8.7,2.4,12.9,3.9c7,2.5,13.8,5.1,20.7,7.7
	c0.9,0.3,1.7,0.7,2.5,1.2c-1.2-0.2-2.4-0.5-3.6-0.7c-2.1-0.4-4.3-0.8-6.4-1.1c-1.8-0.3-3.6-0.6-5.3-0.8c-1.8-0.2-3.5-0.4-5.3-0.6
	c-2-0.2-4.1-0.5-6.1-0.6c-1.3-0.1-2.6-0.2-3.9-0.2c-3.2-0.1-6.4-0.3-9.6-0.4c-3.4-0.1-6.8,0-10.1,0.1c-1.1,0-2.1,0.1-3.2,0.1
	c-2.6,0.2-5.3,0.4-7.9,0.5c-1.7,0.1-3.4,0.2-5.1,0.3c-2.5,0.2-5,0.6-7.6,0.9c-2.5,0.3-5.1,0.5-7.6,0.9c-6.8,1.1-13.6,2.2-20.3,3.5
	c-9.6,1.9-19.2,4-28.7,5.9C191.9,174.5,191.8,174.5,191.6,174.6z"/>
</svg>
